# Blender 4.1.1
# www.blender.org
mtllib package_leftarm.mtl
o LeftArm
v -1.445401 3.616584 -0.368751
v -1.296048 1.541778 0.428587
v -1.445401 3.616584 0.374663
v -0.762570 3.864480 -0.368751
v -1.296048 1.305833 -0.181495
v -0.762570 3.864480 0.374663
v -0.775064 1.305833 -0.181495
v -0.775064 1.541778 0.428587
v -1.673910 2.757242 -0.361170
v -1.491956 3.663277 0.049601
v -1.205267 3.777845 -0.456766
v -1.185269 2.719799 -0.864288
v -0.626248 3.955896 0.049601
v -0.765108 2.738850 -0.183088
v -1.167377 2.795433 0.075358
v -0.840638 2.787699 -0.013037
v -1.579005 2.787699 -0.013037
v -0.775064 1.413071 0.096709
v -1.579005 2.727533 -0.700748
v -1.037442 1.263954 0.119484
v -1.296048 1.413071 0.096709
v -1.140102 3.937993 -0.004835
v -1.197225 3.777845 0.475564
v -1.017401 1.430269 0.428587
v -0.840638 2.727533 -0.700748
v -1.017401 1.194323 -0.181495
v -1.270282 1.939730 -0.122024
v -1.270334 1.967663 0.004183
v -1.270395 2.000459 0.152365
v -1.270168 1.879046 -0.396209
v -1.270220 1.907027 -0.269783
v -1.011136 1.995386 0.153513
v -0.765058 1.993730 0.153888
v -1.269969 1.997045 0.153138
v -1.128132 1.996274 0.153313
v -0.967584 1.994613 0.153689
v -0.765378 1.871934 -0.392838
v -0.765219 1.932800 -0.119618
v -0.765294 1.904168 -0.248146
v -0.765134 1.965166 0.025670
v -1.106567 1.876877 -0.395181
v -1.011136 1.874999 -0.394291
v -0.948455 1.872859 -0.393276
v -0.765505 1.870967 -0.392379
v -1.349383 1.739034 -0.275379
v -1.349702 1.805139 -0.111160
v -1.350004 1.867924 0.044816
v -1.349078 1.675796 -0.432479
v -1.350327 1.956379 0.264899
v -0.926403 1.939921 0.271397
v -1.017401 1.942994 0.270183
v -0.738471 1.936846 0.272611
v -1.163285 1.946124 0.268948
v -1.349383 1.949169 0.267745
v -0.738916 1.787768 -0.101950
v -0.739096 1.723401 -0.264815
v -0.739271 1.661082 -0.422496
v -0.738740 1.850581 0.056982
v -0.739096 1.662302 -0.423324
v -1.158749 1.672382 -0.430162
v -1.017401 1.669032 -0.427889
v -0.977696 1.941653 0.270713
v -0.951845 1.940780 0.271057
v -0.966478 1.943156 0.266725
v -0.929078 1.678023 -0.423695
v -0.941674 1.681523 -0.423487
v -0.986609 1.667882 -0.427109
v -0.882563 1.664876 -0.425070
v -0.797165 1.599923 0.405631
v -0.924241 1.934233 0.273642
v -0.769064 1.606555 0.403013
v -0.742701 1.891179 0.290640
v -1.017401 1.458590 0.417406
v -1.017401 1.932283 0.274412
v -0.970583 1.447487 0.421790
v -1.195662 1.890214 0.291022
v -1.198538 1.613058 0.400445
v -1.224578 1.751636 0.345733
v -1.147236 1.901642 0.286509
v -1.028576 1.461240 0.416359
v -0.769116 1.474725 0.064021
v -0.742279 1.752908 -0.083468
v -0.742106 1.688464 -0.257844
v -0.769197 1.373950 -0.195087
v -0.769212 1.363911 -0.220894
v -0.741967 1.634324 -0.404344
v -0.769100 1.484903 0.090186
v -0.742416 1.806298 0.061003
v -1.009266 1.227016 -0.203674
v -0.948428 1.213797 -0.194705
v -1.017401 1.228784 -0.204873
v -1.017401 1.661249 -0.422610
v -1.175945 1.374745 -0.228245
v -1.200862 1.501474 -0.314218
v -1.170822 1.628201 -0.400190
vn -0.9539 0.2522 -0.1625
vn -0.9940 -0.1055 -0.0298
vn -0.9870 0.1485 0.0621
vn 0.1828 0.3329 -0.9251
vn 0.0072 -0.0688 -0.9976
vn -0.1251 0.3743 -0.9188
vn 0.9204 -0.1753 0.3495
vn 0.9963 -0.0424 0.0749
vn 0.9917 -0.1036 0.0768
vn -0.1391 -0.3804 0.9143
vn 0.0072 -0.1394 0.9902
vn 0.1254 -0.3647 0.9227
vn -0.4568 -0.8143 0.3582
vn -0.4311 -0.8671 0.2497
vn -0.0075 -0.9341 0.3569
vn -0.0645 0.9631 -0.2614
vn -0.3205 0.9472 -0.0021
vn -0.0585 0.9973 0.0441
vn -0.9723 -0.1297 -0.1946
vn 0.3818 -0.0780 -0.9209
vn 0.9304 -0.1083 0.3501
vn -0.1728 -0.1631 0.9714
vn 0.0616 -0.9645 0.2569
vn -0.4132 0.8785 -0.2400
vn -0.6070 0.7943 0.0272
vn -0.5865 0.7863 0.1941
vn -0.5891 0.7932 -0.1541
vn 0.4720 -0.8303 0.2964
vn 0.4316 -0.8217 0.3722
vn 0.3945 -0.8574 0.3305
vn -0.0329 0.5819 0.8126
vn 0.0630 0.6016 0.7963
vn -0.0535 0.5994 0.7986
vn -0.0005 0.2055 0.9787
vn 0.0157 0.6756 0.7371
vn 0.9946 0.1013 0.0218
vn 0.9948 0.0837 -0.0587
vn 0.9896 0.1423 0.0217
vn 0.9827 0.1765 -0.0558
vn 0.1173 -0.1421 -0.9829
vn -0.0569 -0.1627 -0.9850
vn 0.1073 -0.1051 -0.9887
vn 0.0005 -0.3387 -0.9409
vn 0.0058 -0.0945 -0.9955
vn -0.9947 0.0385 -0.0954
vn -0.9932 0.1155 -0.0123
vn -0.9948 0.0254 -0.0982
vn -0.9967 0.0706 -0.0396
vn -0.3846 0.8921 0.2371
vn -0.1436 0.9667 0.2117
vn -0.3496 -0.8735 0.3388
vn -0.0002 -0.8988 0.4384
vn 0.2121 -0.0837 0.9736
vn 0.2768 -0.3432 0.8975
vn 0.0888 0.6473 0.7571
vn 0.9888 -0.0172 -0.1482
vn 0.9487 0.0268 -0.3150
vn 0.9935 0.0768 -0.0837
vn -0.3533 -0.0311 -0.9350
vn -0.5268 0.3657 -0.7673
vn -0.1303 -0.1493 -0.9802
vn -0.9654 -0.1145 0.2344
vn -0.9843 0.0869 0.1535
vn -0.9856 0.1685 0.0110
vn -0.9857 0.1616 -0.0484
vn -0.9785 0.1976 -0.0596
vn -0.7532 0.6267 -0.2001
vn -0.9649 0.2511 -0.0766
vn -0.9838 0.1721 -0.0496
vn -0.9927 0.1158 -0.0336
vn 0.0071 0.6849 0.7286
vn 0.0090 0.6918 0.7220
vn 0.0202 0.8810 0.4727
vn 0.0217 0.9106 0.4128
vn 0.0206 0.8891 0.4573
vn 0.0218 0.6869 0.7265
vn 0.0039 0.6698 0.7425
vn 0.0254 0.9140 0.4049
vn 0.0317 0.7095 0.7040
vn 0.9894 0.1383 -0.0438
vn 0.9994 0.0328 -0.0080
vn 1.0000 -0.0020 0.0050
vn 0.9995 0.0294 -0.0075
vn 0.9977 0.0646 -0.0189
vn 0.9989 0.0459 -0.0123
vn -0.0147 -0.1900 -0.9817
vn 0.0168 0.1542 -0.9879
vn 0.0269 0.1584 -0.9870
vn 0.0249 0.0912 -0.9955
vn -0.0229 -0.1847 -0.9825
vn 0.0059 -0.2428 -0.9701
vn 0.0056 -0.2260 -0.9741
vn 0.0100 0.0997 -0.9950
vn -0.9927 -0.1127 0.0437
vn -0.9927 -0.1127 0.0438
vn -0.9927 -0.1128 0.0435
vn -0.9927 -0.1128 0.0436
vn -0.1699 0.4096 0.8963
vn -0.0000 0.3672 0.9301
vn -0.0966 0.3928 0.9145
vn -0.0903 0.3912 0.9159
vn -0.0926 0.3861 0.9178
vn -0.2133 0.4185 0.8828
vn 0.0336 0.3424 0.9390
vn 0.0242 0.3493 0.9367
vn 0.0160 0.3555 0.9346
vn 0.9963 -0.0799 0.0308
vn 0.9963 -0.0798 0.0307
vn 0.9963 -0.0798 0.0306
vn 0.9963 -0.0799 0.0305
vn 0.9963 -0.0798 0.0304
vn 0.9964 -0.0797 0.0304
vn 0.9944 -0.0985 0.0378
vn 0.9964 -0.0798 0.0304
vn 0.9963 -0.0800 0.0308
vn 0.9963 -0.0800 0.0306
vn 0.9963 -0.0800 0.0310
vn -0.0769 -0.4970 -0.8643
vn -0.0000 -0.5614 -0.8275
vn 0.3769 -0.7408 -0.5560
vn 0.1111 -0.6225 -0.7747
vn 0.1879 -0.6691 -0.7190
vn -0.0565 -0.5147 -0.8555
vn -0.0970 -0.4791 -0.8724
vn -0.0613 -0.5106 -0.8576
vn 0.9812 -0.1660 0.0982
vn -0.6225 0.7235 -0.2985
vn 0.2459 -0.9034 0.3513
vn 0.9844 0.1731 -0.0302
vn -0.2470 -0.9090 0.3357
vn 0.5827 0.7656 -0.2726
vt 0.263162 0.367307
vt 0.313259 0.260835
vt 0.313259 0.367307
vt 0.150390 0.364055
vt 0.200090 0.260330
vt 0.200090 0.364055
vt 0.038906 0.364344
vt 0.087601 0.260629
vt 0.087601 0.364344
vt 0.376546 0.368851
vt 0.426316 0.260817
vt 0.426316 0.368851
vt 0.377892 0.087942
vt 0.377892 0.037975
vt 0.426255 0.087942
vt 0.475630 0.485704
vt 0.426033 0.433780
vt 0.475630 0.433780
vt 0.263162 0.260835
vt 0.150390 0.260330
vt 0.038906 0.260629
vt 0.376546 0.260817
vt 0.426255 0.037975
vt 0.426033 0.485704
vt 0.376437 0.433780
vt 0.376437 0.381856
vt 0.376437 0.485704
vt 0.474617 0.087942
vt 0.474617 0.137909
vt 0.474617 0.037975
vt 0.426316 0.201761
vt 0.453570 0.201656
vt 0.403696 0.201882
vt 0.376546 0.202450
vt 0.376546 0.201986
vt 0.087601 0.203552
vt 0.114436 0.203474
vt 0.065662 0.203641
vt 0.038906 0.203719
vt 0.200090 0.203502
vt 0.227197 0.203759
vt 0.177760 0.203209
vt 0.150390 0.203082
vt 0.150390 0.202949
vt 0.313259 0.203192
vt 0.340355 0.203247
vt 0.290315 0.203126
vt 0.263162 0.203070
vt 0.426033 0.381856
vt 0.475630 0.381856
vt 0.377892 0.137909
vt 0.426255 0.137909
vt 0.476086 0.260817
vt 0.476086 0.368851
vt 0.476086 0.201537
vt 0.136296 0.260629
vt 0.136296 0.364344
vt 0.136296 0.203386
vt 0.249791 0.260330
vt 0.249791 0.364055
vt 0.249791 0.204056
vt 0.363356 0.260835
vt 0.363356 0.367307
vt 0.363356 0.203313
vt 0.291711 0.200160
vt 0.313259 0.200434
vt 0.363356 0.202857
vt 0.341557 0.200693
vt 0.363356 0.200970
vt 0.263162 0.199898
vt 0.455165 0.198195
vt 0.426316 0.198546
vt 0.438903 0.198393
vt 0.442678 0.198466
vt 0.447099 0.198293
vt 0.405069 0.198903
vt 0.476086 0.197845
vt 0.376546 0.200073
vt 0.376546 0.199250
vt 0.136296 0.203253
vt 0.116230 0.199652
vt 0.136296 0.199652
vt 0.038906 0.200175
vt 0.067395 0.199950
vt 0.087601 0.199803
vt 0.200090 0.200154
vt 0.179317 0.199959
vt 0.182269 0.200065
vt 0.192982 0.200017
vt 0.228732 0.200556
vt 0.249791 0.200966
vt 0.150390 0.199348
vt 0.172452 0.199656
vt 0.363356 0.154364
vt 0.363356 0.200160
vt 0.263162 0.154364
vt 0.313259 0.154364
vt 0.476086 0.152782
vt 0.476086 0.160171
vt 0.473031 0.159414
vt 0.476086 0.192636
vt 0.455464 0.197547
vt 0.426316 0.156012
vt 0.426316 0.152782
vt 0.436123 0.154746
vt 0.426316 0.197324
vt 0.376546 0.152782
vt 0.424689 0.156315
vt 0.395198 0.160912
vt 0.393061 0.176719
vt 0.399548 0.192526
vt 0.407406 0.193829
vt 0.087601 0.156914
vt 0.136296 0.156914
vt 0.133023 0.163886
vt 0.087601 0.163971
vt 0.087601 0.195812
vt 0.117909 0.196076
vt 0.136296 0.163877
vt 0.136296 0.199505
vt 0.136296 0.196297
vt 0.084284 0.163980
vt 0.069440 0.195594
vt 0.038906 0.156914
vt 0.038906 0.164007
vt 0.038906 0.195174
vt 0.249791 0.156606
vt 0.150390 0.199201
vt 0.150390 0.195993
vt 0.150390 0.156606
vt 0.200090 0.156606
vt 0.198212 0.160526
vt 0.185993 0.158941
vt 0.150390 0.163570
vt 0.200090 0.199221
vt 0.230407 0.195259
vt 0.234478 0.180064
vt 0.228794 0.164869
vt 0.200090 0.160738
vt 0.379184 0.075615
vt 0.472058 0.077422
vt 0.471815 0.088806
vt 0.383142 0.087080
vt 0.464373 0.121317
vt 0.467656 0.138567
vt 0.467396 0.140736
vt 0.425331 0.138969
vt 0.421810 0.138837
vt 0.386950 0.137539
vt 0.383477 0.137409
vt 0.381534 0.119801
vt 0.377789 0.061361
vt 0.378823 0.057882
vt 0.471562 0.059687
vt 0.471963 0.060555
vt 0.471981 0.063628
vt 0.472037 0.073675
vt 0.378023 0.063744
vt 0.471342 0.100147
vt 0.386869 0.098503
vt 0.471965 0.058554
vt 0.378642 0.056908
vt 0.377896 0.053308
vt 0.378971 0.042423
vt 0.398593 0.042409
vt 0.421949 0.042394
vt 0.441299 0.042380
vt 0.472058 0.042364
vt 0.471977 0.056417
vt 0.464822 0.116835
vt 0.464736 0.117699
vt 0.381568 0.115083
vt 0.381572 0.114452
s 1
usemtl LeftArm.003
f 1/1/1 9/2/2 10/3/3
f 4/4/4 12/5/5 11/6/6
f 6/7/7 14/8/8 13/9/9
f 3/10/10 15/11/11 23/12/12
f 21/13/13 5/14/14 20/15/15
f 4/16/16 22/17/17 13/18/18
f 1/1/1 19/19/19 9/2/2
f 4/4/4 25/20/20 12/5/5
f 6/7/7 16/21/21 14/8/8
f 3/10/10 17/22/22 15/11/11
f 5/14/14 26/23/23 20/15/15
f 4/16/16 11/24/24 22/17/17
f 22/17/17 10/25/25 3/26/26
f 22/17/17 11/24/24 10/25/25
f 11/24/24 1/27/27 10/25/25
f 20/15/15 18/28/28 8/29/29
f 20/15/15 26/23/23 18/28/28
f 26/23/23 7/30/30 18/28/28
f 15/11/11 32/31/31 36/32/32
f 15/11/11 17/22/22 35/33/33 32/31/31
f 17/22/22 29/34/34 34/35/35 35/33/33
f 38/36/36 39/37/37 14/8/8
f 14/8/8 16/21/21 40/38/38 38/36/36
f 33/39/39 40/38/38 16/21/21
f 12/5/5 42/40/40 41/41/41
f 12/5/5 25/20/20 43/42/42 42/40/40
f 25/20/20 37/43/43 44/44/44 43/42/42
f 9/2/2 27/45/45 28/46/46
f 9/2/2 19/19/19 31/47/47 27/45/45
f 19/19/19 30/48/48 31/47/47
f 13/18/18 23/49/49 6/50/50
f 13/18/18 22/17/17 23/49/49
f 22/17/17 3/26/26 23/49/49
f 2/51/51 21/13/13 24/52/52
f 21/13/13 20/15/15 24/52/52
f 24/52/52 20/15/15 8/29/29
f 23/12/12 16/53/53 6/54/54
f 23/12/12 15/11/11 16/53/53
f 15/11/11 36/32/32 33/55/55 16/53/53
f 13/9/9 25/56/56 4/57/57
f 13/9/9 14/8/8 25/56/56
f 14/8/8 39/37/37 37/58/58 25/56/56
f 11/6/6 19/59/59 1/60/60
f 11/6/6 12/5/5 19/59/59
f 12/5/5 41/41/41 30/61/61 19/59/59
f 10/3/3 17/62/62 3/63/63
f 10/3/3 9/2/2 17/62/62
f 9/2/2 28/46/46 29/64/64 17/62/62
f 27/45/45 31/47/47 45/65/65 46/66/66
f 34/67/67 29/64/64 28/46/46 47/68/68 49/69/69
f 31/47/47 30/48/48 48/70/70 45/65/65
f 28/46/46 27/45/45 46/66/66 47/68/68
f 50/71/71 36/32/32 32/31/31 51/72/72 62/73/73 64/74/74 63/75/75
f 32/31/31 35/33/33 53/76/76 51/72/72
f 33/55/55 36/32/32 50/71/71 52/77/77
f 53/76/76 35/33/33 34/35/35 49/78/78 54/79/79
f 44/80/80 37/58/58 39/37/37 56/81/81 59/82/82
f 40/38/38 33/39/39 52/83/83 58/84/84
f 39/37/37 38/36/36 55/85/85 56/81/81
f 38/36/36 40/38/38 58/84/84 55/85/85
f 61/86/86 42/40/40 43/42/42 65/87/87 66/88/88 67/89/89
f 30/61/61 41/41/41 60/90/90 48/91/91
f 43/42/42 44/44/44 59/92/92 68/93/93 65/87/87
f 41/41/41 42/40/40 61/86/86 60/90/90
f 49/69/69 47/68/68 2/94/94 54/95/95
f 45/65/65 48/70/70 5/96/96 21/97/97
f 46/66/66 45/65/65 21/97/97
f 47/68/68 46/66/66 21/97/97 2/94/94
f 8/98/98 71/99/99 69/100/100
f 72/101/99 52/77/77 50/71/71 70/102/99
f 73/103/101 24/104/102 8/98/98 69/100/100 75/105/103
f 51/72/72 74/106/99 62/73/73
f 70/102/99 50/71/71 63/75/75
f 53/76/76 54/79/79 2/107/104 24/104/102 80/108/105 77/109/104 78/110/104 76/111/104 79/112/106
f 80/108/105 24/104/102 73/103/101
f 74/106/99 51/72/72 53/76/76 79/112/106
f 18/113/107 7/114/108 84/115/109 81/116/109
f 56/81/81 55/85/85 82/117/110 83/118/111
f 7/114/108 85/119/112 84/115/109
f 57/120/113 56/81/81 83/118/111 86/121/114
f 18/113/107 81/116/109 87/122/115
f 82/117/110 55/85/85 58/84/84 88/123/116
f 8/124/117 18/113/107 87/122/115 71/125/117
f 58/84/84 52/83/83 72/126/115 88/123/116
f 57/120/113 59/82/82 56/81/81
f 48/91/91 60/90/90 5/127/118
f 68/93/93 59/92/92 57/128/119 86/129/119
f 7/130/120 26/131/121 89/132/122 90/133/120 85/134/120
f 26/131/121 5/127/118 60/90/90 61/86/86 92/135/123 95/136/124 94/137/124 93/138/124 91/139/125
f 91/139/125 89/132/122 26/131/121
f 67/89/89 92/135/123 61/86/86
s 0
f 95/140/126 76/141/126 78/142/126 94/143/126
f 75/144/127 69/145/127 71/146/127 87/147/127 81/148/127 84/149/127 85/150/127 90/151/127
f 67/152/128 66/153/128 64/154/128 62/155/128 74/156/128 79/157/128 76/141/128 95/140/128 92/158/128
f 94/143/129 78/142/129 77/159/129 93/160/129
f 63/161/130 64/154/130 66/153/130 65/162/130 68/163/130 86/164/130 83/165/130 82/166/130 88/167/130 72/168/130 70/169/130
f 77/159/131 80/170/131 73/171/131 75/144/131 90/151/131 89/172/131 91/173/131 93/160/131
