# Blender 4.1.1
# www.blender.org
mtllib package_rightarm.mtl
o RightArm
v 1.454264 3.616584 -0.368751
v 1.304911 1.541778 0.428587
v 1.454264 3.616584 0.374663
v 0.771433 3.864480 -0.368751
v 1.304911 1.305833 -0.181495
v 0.771433 3.864480 0.374663
v 0.783927 1.305833 -0.181495
v 0.783927 1.541778 0.428587
v 1.682773 2.757242 -0.361170
v 1.500819 3.663277 0.049601
v 1.214130 3.777845 -0.456766
v 1.194132 2.719799 -0.864288
v 0.635111 3.955896 0.049601
v 0.773971 2.738850 -0.183088
v 1.176241 2.795433 0.075358
v 0.849501 2.787699 -0.013037
v 1.587868 2.787699 -0.013037
v 0.783927 1.413071 0.096709
v 1.587868 2.727533 -0.700748
v 1.046305 1.263954 0.119484
v 1.304911 1.413071 0.096709
v 1.148965 3.937993 -0.004835
v 1.206088 3.777845 0.475564
v 1.026265 1.430269 0.428587
v 0.849501 2.727533 -0.700748
v 1.026265 1.194323 -0.181495
v 1.279145 1.939730 -0.122024
v 1.279197 1.967663 0.004183
v 1.279258 2.000459 0.152365
v 1.279031 1.879046 -0.396209
v 1.279083 1.907027 -0.269783
v 1.019999 1.995386 0.153513
v 0.773922 1.993730 0.153888
v 1.278832 1.997045 0.153138
v 1.136995 1.996274 0.153313
v 0.976447 1.994613 0.153689
v 0.774242 1.871934 -0.392838
v 0.774082 1.932800 -0.119618
v 0.774157 1.904168 -0.248146
v 0.773997 1.965166 0.025670
v 1.115430 1.876877 -0.395181
v 1.019999 1.874999 -0.394291
v 0.957318 1.872859 -0.393276
v 0.774369 1.870967 -0.392379
v 1.358246 1.739034 -0.275379
v 1.358565 1.805139 -0.111160
v 1.358867 1.867924 0.044816
v 1.357942 1.675796 -0.432479
v 1.359190 1.956379 0.264899
v 0.935266 1.939921 0.271397
v 1.026265 1.942994 0.270183
v 0.747334 1.936846 0.272611
v 1.172148 1.946124 0.268948
v 1.358246 1.949169 0.267745
v 0.747779 1.787768 -0.101950
v 0.747959 1.723401 -0.264815
v 0.748134 1.661082 -0.422496
v 0.747603 1.850581 0.056982
v 0.747959 1.662302 -0.423324
v 1.167612 1.672382 -0.430162
v 1.026265 1.669032 -0.427889
v 0.986559 1.941653 0.270713
v 0.960708 1.940780 0.271057
v 0.975341 1.943156 0.266725
v 0.937941 1.678023 -0.423695
v 0.950538 1.681523 -0.423487
v 0.995472 1.667882 -0.427109
v 0.891426 1.664876 -0.425070
v 0.806028 1.599923 0.405631
v 0.933104 1.934233 0.273642
v 0.777927 1.606555 0.403013
v 0.751564 1.891179 0.290640
v 1.026265 1.458590 0.417406
v 1.026265 1.932283 0.274412
v 0.979446 1.447487 0.421790
v 1.204525 1.890214 0.291022
v 1.207401 1.613058 0.400445
v 1.233441 1.751636 0.345733
v 1.156099 1.901642 0.286509
v 1.037439 1.461240 0.416359
v 0.777979 1.474725 0.064021
v 0.751142 1.752908 -0.083468
v 0.750969 1.688464 -0.257844
v 0.778060 1.373950 -0.195087
v 0.778076 1.363911 -0.220894
v 0.750830 1.634324 -0.404344
v 0.777963 1.484903 0.090186
v 0.751279 1.806298 0.061003
v 1.018129 1.227016 -0.203674
v 0.957291 1.213797 -0.194705
v 1.026265 1.228784 -0.204873
v 1.026265 1.661249 -0.422610
v 1.184808 1.374745 -0.228245
v 1.209725 1.501474 -0.314218
v 1.179685 1.628201 -0.400190
vn 0.9539 0.2522 -0.1625
vn 0.9940 -0.1055 -0.0298
vn 0.9870 0.1485 0.0621
vn -0.1828 0.3329 -0.9251
vn -0.0072 -0.0688 -0.9976
vn 0.1251 0.3743 -0.9188
vn -0.9204 -0.1753 0.3495
vn -0.9963 -0.0424 0.0749
vn -0.9917 -0.1036 0.0768
vn 0.1391 -0.3804 0.9143
vn -0.0072 -0.1394 0.9902
vn -0.1254 -0.3647 0.9227
vn 0.4568 -0.8143 0.3582
vn 0.4311 -0.8671 0.2497
vn 0.0075 -0.9341 0.3569
vn 0.0645 0.9631 -0.2614
vn 0.3205 0.9472 -0.0021
vn 0.0585 0.9973 0.0441
vn 0.9723 -0.1297 -0.1946
vn -0.3818 -0.0780 -0.9209
vn -0.9304 -0.1083 0.3501
vn 0.1728 -0.1631 0.9714
vn -0.0616 -0.9645 0.2569
vn 0.4132 0.8785 -0.2400
vn 0.6070 0.7943 0.0272
vn 0.5865 0.7863 0.1941
vn 0.5891 0.7932 -0.1541
vn -0.4720 -0.8303 0.2964
vn -0.4316 -0.8217 0.3722
vn -0.3945 -0.8574 0.3305
vn 0.0329 0.5819 0.8126
vn -0.0630 0.6016 0.7963
vn 0.0535 0.5994 0.7986
vn 0.0005 0.2055 0.9787
vn -0.0157 0.6756 0.7371
vn -0.9946 0.1013 0.0218
vn -0.9948 0.0837 -0.0587
vn -0.9896 0.1423 0.0217
vn -0.9827 0.1765 -0.0558
vn -0.1173 -0.1421 -0.9829
vn 0.0569 -0.1627 -0.9850
vn -0.1073 -0.1051 -0.9887
vn -0.0005 -0.3387 -0.9409
vn -0.0058 -0.0945 -0.9955
vn 0.9947 0.0385 -0.0954
vn 0.9932 0.1155 -0.0123
vn 0.9948 0.0254 -0.0982
vn 0.9967 0.0706 -0.0396
vn 0.3846 0.8921 0.2371
vn 0.1436 0.9667 0.2117
vn 0.3496 -0.8735 0.3388
vn 0.0002 -0.8988 0.4384
vn -0.2121 -0.0837 0.9736
vn -0.2768 -0.3432 0.8975
vn -0.0888 0.6473 0.7571
vn -0.9888 -0.0172 -0.1482
vn -0.9487 0.0268 -0.3150
vn -0.9935 0.0768 -0.0837
vn 0.3533 -0.0311 -0.9350
vn 0.5268 0.3657 -0.7673
vn 0.1303 -0.1493 -0.9802
vn 0.9654 -0.1145 0.2344
vn 0.9843 0.0869 0.1535
vn 0.9856 0.1685 0.0110
vn 0.9857 0.1616 -0.0484
vn 0.9785 0.1976 -0.0596
vn 0.7532 0.6267 -0.2001
vn 0.9649 0.2511 -0.0766
vn 0.9838 0.1721 -0.0496
vn 0.9927 0.1158 -0.0336
vn -0.0071 0.6849 0.7286
vn -0.0090 0.6918 0.7220
vn -0.0202 0.8810 0.4727
vn -0.0217 0.9106 0.4128
vn -0.0206 0.8891 0.4573
vn -0.0218 0.6869 0.7265
vn -0.0039 0.6698 0.7425
vn -0.0254 0.9140 0.4049
vn -0.0317 0.7095 0.7040
vn -0.9894 0.1383 -0.0438
vn -0.9994 0.0328 -0.0080
vn -1.0000 -0.0020 0.0050
vn -0.9995 0.0294 -0.0075
vn -0.9977 0.0646 -0.0189
vn -0.9989 0.0459 -0.0123
vn 0.0147 -0.1900 -0.9817
vn -0.0168 0.1542 -0.9879
vn -0.0269 0.1584 -0.9870
vn -0.0249 0.0912 -0.9955
vn 0.0229 -0.1847 -0.9825
vn -0.0059 -0.2428 -0.9701
vn -0.0056 -0.2260 -0.9741
vn -0.0100 0.0997 -0.9950
vn 0.9927 -0.1127 0.0437
vn 0.9927 -0.1127 0.0438
vn 0.9927 -0.1128 0.0435
vn 0.9927 -0.1128 0.0436
vn 0.1699 0.4096 0.8963
vn -0.0000 0.3672 0.9301
vn 0.0966 0.3928 0.9145
vn 0.0903 0.3912 0.9159
vn 0.0926 0.3861 0.9178
vn 0.2133 0.4185 0.8828
vn -0.0336 0.3424 0.9390
vn -0.0242 0.3493 0.9367
vn -0.0160 0.3555 0.9346
vn -0.9963 -0.0799 0.0308
vn -0.9963 -0.0798 0.0307
vn -0.9963 -0.0798 0.0306
vn -0.9963 -0.0799 0.0305
vn -0.9963 -0.0798 0.0304
vn -0.9964 -0.0797 0.0304
vn -0.9944 -0.0985 0.0378
vn -0.9964 -0.0798 0.0304
vn -0.9963 -0.0800 0.0308
vn -0.9963 -0.0800 0.0306
vn -0.9963 -0.0800 0.0310
vn 0.0769 -0.4970 -0.8643
vn -0.0000 -0.5614 -0.8275
vn -0.3769 -0.7408 -0.5560
vn -0.1111 -0.6225 -0.7747
vn -0.1879 -0.6691 -0.7190
vn 0.0565 -0.5147 -0.8555
vn 0.0970 -0.4791 -0.8724
vn 0.0613 -0.5106 -0.8576
vn -0.9812 -0.1660 0.0982
vn 0.6225 0.7235 -0.2985
vn -0.2459 -0.9034 0.3513
vn -0.9844 0.1731 -0.0302
vn 0.2470 -0.9090 0.3357
vn -0.5827 0.7656 -0.2726
vt 0.744994 0.366330
vt 0.694897 0.259859
vt 0.694897 0.366330
vt 0.857766 0.363078
vt 0.808066 0.259354
vt 0.808066 0.363078
vt 0.969250 0.363367
vt 0.920555 0.259652
vt 0.920555 0.363367
vt 0.631610 0.367874
vt 0.581840 0.259840
vt 0.581840 0.367874
vt 0.630264 0.086965
vt 0.630264 0.036998
vt 0.581902 0.086965
vt 0.532526 0.484727
vt 0.582123 0.432803
vt 0.532526 0.432803
vt 0.744994 0.259859
vt 0.857766 0.259354
vt 0.969250 0.259652
vt 0.631610 0.259840
vt 0.581902 0.036998
vt 0.582123 0.484727
vt 0.631719 0.432803
vt 0.631719 0.380879
vt 0.631719 0.484727
vt 0.533539 0.086965
vt 0.533539 0.136932
vt 0.533539 0.036998
vt 0.581840 0.200785
vt 0.554586 0.200680
vt 0.604460 0.200905
vt 0.631610 0.201473
vt 0.631610 0.201010
vt 0.920555 0.202576
vt 0.893720 0.202497
vt 0.942494 0.202665
vt 0.969250 0.202743
vt 0.808066 0.202525
vt 0.780959 0.202782
vt 0.830396 0.202232
vt 0.857766 0.202105
vt 0.857766 0.201973
vt 0.694897 0.202215
vt 0.667801 0.202271
vt 0.717841 0.202150
vt 0.744994 0.202094
vt 0.582123 0.380879
vt 0.532526 0.380879
vt 0.630264 0.136932
vt 0.581902 0.136932
vt 0.532070 0.259840
vt 0.532070 0.367874
vt 0.532070 0.200560
vt 0.871860 0.259652
vt 0.871860 0.363367
vt 0.871860 0.202409
vt 0.758365 0.259354
vt 0.758365 0.363078
vt 0.758365 0.203079
vt 0.644800 0.259859
vt 0.644800 0.366330
vt 0.644800 0.202336
vt 0.716445 0.199183
vt 0.694897 0.199457
vt 0.644800 0.201880
vt 0.666599 0.199717
vt 0.644800 0.199994
vt 0.744994 0.198922
vt 0.552991 0.197219
vt 0.581840 0.197569
vt 0.569253 0.197416
vt 0.565478 0.197489
vt 0.561057 0.197317
vt 0.603087 0.197926
vt 0.532070 0.196868
vt 0.631610 0.199096
vt 0.631610 0.198274
vt 0.871860 0.202276
vt 0.891926 0.198675
vt 0.871860 0.198675
vt 0.969250 0.199198
vt 0.940761 0.198973
vt 0.920555 0.198826
vt 0.808066 0.199178
vt 0.828839 0.198983
vt 0.825887 0.199089
vt 0.815175 0.199040
vt 0.779424 0.199580
vt 0.758365 0.199989
vt 0.857766 0.198371
vt 0.835704 0.198680
vt 0.644800 0.153387
vt 0.644800 0.199183
vt 0.744994 0.153387
vt 0.694897 0.153387
vt 0.532070 0.151805
vt 0.532070 0.159194
vt 0.535125 0.158438
vt 0.532070 0.191659
vt 0.552693 0.196570
vt 0.581840 0.155036
vt 0.581840 0.151805
vt 0.572033 0.153769
vt 0.581840 0.196348
vt 0.631610 0.151805
vt 0.583468 0.155338
vt 0.612958 0.159936
vt 0.615095 0.175742
vt 0.608608 0.191549
vt 0.600750 0.192853
vt 0.920555 0.155937
vt 0.871860 0.155937
vt 0.875133 0.162909
vt 0.920555 0.162994
vt 0.920555 0.194836
vt 0.890247 0.195099
vt 0.871860 0.162900
vt 0.871860 0.198529
vt 0.871860 0.195321
vt 0.923873 0.163003
vt 0.938716 0.194617
vt 0.969250 0.155937
vt 0.969250 0.163031
vt 0.969250 0.194198
vt 0.758365 0.155629
vt 0.857766 0.198225
vt 0.857766 0.195016
vt 0.857766 0.155629
vt 0.808066 0.155629
vt 0.809944 0.159549
vt 0.822163 0.157964
vt 0.857766 0.162593
vt 0.808066 0.198245
vt 0.777749 0.194282
vt 0.773678 0.179087
vt 0.779362 0.163892
vt 0.808066 0.159761
vt 0.533181 0.075705
vt 0.622020 0.077560
vt 0.621787 0.089243
vt 0.536966 0.087472
vt 0.614669 0.122609
vt 0.617809 0.140313
vt 0.617561 0.142539
vt 0.577322 0.140726
vt 0.573955 0.140590
vt 0.540609 0.139258
vt 0.537287 0.139124
vt 0.535428 0.121054
vt 0.531846 0.061076
vt 0.532835 0.057506
vt 0.621545 0.059358
vt 0.621930 0.060249
vt 0.621946 0.063402
vt 0.622000 0.073714
vt 0.532069 0.063522
vt 0.621335 0.100883
vt 0.540532 0.099195
vt 0.621931 0.058195
vt 0.532662 0.056506
vt 0.531948 0.052811
vt 0.532976 0.041640
vt 0.551746 0.041626
vt 0.574088 0.041610
vt 0.592597 0.041596
vt 0.622020 0.041580
vt 0.621943 0.056002
vt 0.615099 0.118010
vt 0.615016 0.118896
vt 0.535460 0.116212
vt 0.535465 0.115564
s 1
usemtl LeftArm.001
f 1/1/1 10/3/3 9/2/2
f 4/4/4 11/6/6 12/5/5
f 6/7/7 13/9/9 14/8/8
f 3/10/10 23/12/12 15/11/11
f 21/13/13 20/15/15 5/14/14
f 4/16/16 13/18/18 22/17/17
f 1/1/1 9/2/2 19/19/19
f 4/4/4 12/5/5 25/20/20
f 6/7/7 14/8/8 16/21/21
f 3/10/10 15/11/11 17/22/22
f 5/14/14 20/15/15 26/23/23
f 4/16/16 22/17/17 11/24/24
f 22/17/17 3/26/26 10/25/25
f 22/17/17 10/25/25 11/24/24
f 11/24/24 10/25/25 1/27/27
f 20/15/15 8/29/29 18/28/28
f 20/15/15 18/28/28 26/23/23
f 26/23/23 18/28/28 7/30/30
f 15/11/11 36/32/32 32/31/31
f 15/11/11 32/31/31 35/33/33 17/22/22
f 17/22/22 35/33/33 34/35/35 29/34/34
f 38/36/36 14/8/8 39/37/37
f 14/8/8 38/36/36 40/38/38 16/21/21
f 33/39/39 16/21/21 40/38/38
f 12/5/5 41/41/41 42/40/40
f 12/5/5 42/40/40 43/42/42 25/20/20
f 25/20/20 43/42/42 44/44/44 37/43/43
f 9/2/2 28/46/46 27/45/45
f 9/2/2 27/45/45 31/47/47 19/19/19
f 19/19/19 31/47/47 30/48/48
f 13/18/18 6/50/50 23/49/49
f 13/18/18 23/49/49 22/17/17
f 22/17/17 23/49/49 3/26/26
f 2/51/51 24/52/52 21/13/13
f 21/13/13 24/52/52 20/15/15
f 24/52/52 8/29/29 20/15/15
f 23/12/12 6/54/54 16/53/53
f 23/12/12 16/53/53 15/11/11
f 15/11/11 16/53/53 33/55/55 36/32/32
f 13/9/9 4/57/57 25/56/56
f 13/9/9 25/56/56 14/8/8
f 14/8/8 25/56/56 37/58/58 39/37/37
f 11/6/6 1/60/60 19/59/59
f 11/6/6 19/59/59 12/5/5
f 12/5/5 19/59/59 30/61/61 41/41/41
f 10/3/3 3/63/63 17/62/62
f 10/3/3 17/62/62 9/2/2
f 9/2/2 17/62/62 29/64/64 28/46/46
f 27/45/45 46/66/66 45/65/65 31/47/47
f 34/67/67 49/69/69 47/68/68 28/46/46 29/64/64
f 31/47/47 45/65/65 48/70/70 30/48/48
f 28/46/46 47/68/68 46/66/66 27/45/45
f 50/71/71 63/75/75 64/74/74 62/73/73 51/72/72 32/31/31 36/32/32
f 32/31/31 51/72/72 53/76/76 35/33/33
f 33/55/55 52/77/77 50/71/71 36/32/32
f 53/76/76 54/79/79 49/78/78 34/35/35 35/33/33
f 44/80/80 59/82/82 56/81/81 39/37/37 37/58/58
f 40/38/38 58/84/84 52/83/83 33/39/39
f 39/37/37 56/81/81 55/85/85 38/36/36
f 38/36/36 55/85/85 58/84/84 40/38/38
f 61/86/86 67/89/89 66/88/88 65/87/87 43/42/42 42/40/40
f 30/61/61 48/91/91 60/90/90 41/41/41
f 43/42/42 65/87/87 68/93/93 59/92/92 44/44/44
f 41/41/41 60/90/90 61/86/86 42/40/40
f 49/69/69 54/95/95 2/94/94 47/68/68
f 45/65/65 21/97/97 5/96/96 48/70/70
f 46/66/66 21/97/97 45/65/65
f 47/68/68 2/94/94 21/97/97 46/66/66
f 8/98/98 69/100/100 71/99/99
f 72/101/99 70/102/99 50/71/71 52/77/77
f 73/103/101 75/105/103 69/100/100 8/98/98 24/104/102
f 51/72/72 62/73/73 74/106/99
f 70/102/99 63/75/75 50/71/71
f 53/76/76 79/112/106 76/111/104 78/110/104 77/109/104 80/108/105 24/104/102 2/107/104 54/79/79
f 80/108/105 73/103/101 24/104/102
f 74/106/99 79/112/106 53/76/76 51/72/72
f 18/113/107 81/116/109 84/115/109 7/114/108
f 56/81/81 83/118/111 82/117/110 55/85/85
f 7/114/108 84/115/109 85/119/112
f 57/120/113 86/121/114 83/118/111 56/81/81
f 18/113/107 87/122/115 81/116/109
f 82/117/110 88/123/116 58/84/84 55/85/85
f 8/124/117 71/125/117 87/122/115 18/113/107
f 58/84/84 88/123/116 72/126/115 52/83/83
f 57/120/113 56/81/81 59/82/82
f 48/91/91 5/127/118 60/90/90
f 68/93/93 86/129/119 57/128/119 59/92/92
f 7/130/120 85/134/120 90/133/120 89/132/122 26/131/121
f 26/131/121 91/139/125 93/138/124 94/137/124 95/136/124 92/135/123 61/86/86 60/90/90 5/127/118
f 91/139/125 26/131/121 89/132/122
f 67/89/89 61/86/86 92/135/123
s 0
f 95/140/126 94/143/126 78/142/126 76/141/126
f 75/144/127 90/151/127 85/150/127 84/149/127 81/148/127 87/147/127 71/146/127 69/145/127
f 67/152/128 92/158/128 95/140/128 76/141/128 79/157/128 74/156/128 62/155/128 64/154/128 66/153/128
f 94/143/129 93/160/129 77/159/129 78/142/129
f 63/161/130 70/169/130 72/168/130 88/167/130 82/166/130 83/165/130 86/164/130 68/163/130 65/162/130 66/153/130 64/154/130
f 77/159/131 93/160/131 91/173/131 89/172/131 90/151/131 75/144/131 73/171/131 80/170/131
